<?xml version="1.0" encoding="UTF-8" standalone="no"?>
<svg width="20px" height="20px" viewBox="0 0 20 20" version="1.1" xmlns="http://www.w3.org/2000/svg" xmlns:xlink="http://www.w3.org/1999/xlink">
    <!-- Generator: Sketch 41.2 (35397) - http://www.bohemiancoding.com/sketch -->
    <title>calendar 2</title>
    <desc>Created with Sketch.</desc>
    <defs></defs>
    <g id="Page-1" stroke="none" stroke-width="1" fill="none" fill-rule="evenodd">
        <g id="Dine-møter-V3" transform="translate(-708.000000, -915.000000)" fill="#06893A">
            <g id="calendar-2" transform="translate(708.000000, 915.000000)">
                <g id="Filled_Version">
                    <g id="Group">
                        <rect id="Rectangle-path" x="10" y="13.3333333" width="3.33333333" height="2.5"></rect>
                        <rect id="Rectangle-path" x="5.83333333" y="13.3333333" width="3.33333333" height="2.5"></rect>
                        <rect id="Rectangle-path" x="10" y="10" width="3.33333333" height="2.5"></rect>
                        <rect id="Rectangle-path" x="5.83333333" y="10" width="3.33333333" height="2.5"></rect>
                        <path d="M0,19.5833333 C0,19.8133333 0.186666667,20 0.416666667,20 L19.5833333,20 C19.8133333,20 20,19.8133333 20,19.5833333 L20,6.66666667 L0,6.66666667 L0,19.5833333 Z M2.08333333,13.3333333 C1.85333333,13.3333333 1.66666667,13.1466667 1.66666667,12.9166667 C1.66666667,12.6866667 1.85333333,12.5 2.08333333,12.5 L5,12.5 L5,10 L2.08333333,10 C1.85333333,10 1.66666667,9.81333333 1.66666667,9.58333333 C1.66666667,9.35333333 1.85333333,9.16666667 2.08333333,9.16666667 L5,9.16666667 L5,7.91666667 C5,7.68666667 5.18666667,7.5 5.41666667,7.5 C5.64666667,7.5 5.83333333,7.68666667 5.83333333,7.91666667 L5.83333333,9.16666667 L9.16666667,9.16666667 L9.16666667,7.91666667 C9.16666667,7.68666667 9.35333333,7.5 9.58333333,7.5 C9.81333333,7.5 10,7.68666667 10,7.91666667 L10,9.16666667 L13.3333333,9.16666667 L13.3333333,7.91666667 C13.3333333,7.68666667 13.52,7.5 13.75,7.5 C13.98,7.5 14.1666667,7.68666667 14.1666667,7.91666667 L14.1666667,9.16666667 L17.9166667,9.16666667 C18.1466667,9.16666667 18.3333333,9.35333333 18.3333333,9.58333333 C18.3333333,9.81333333 18.1466667,10 17.9166667,10 L14.1666667,10 L14.1666667,12.5 L17.9166667,12.5 C18.1466667,12.5 18.3333333,12.6866667 18.3333333,12.9166667 C18.3333333,13.1466667 18.1466667,13.3333333 17.9166667,13.3333333 L14.1666667,13.3333333 L14.1666667,15.8333333 L17.9166667,15.8333333 C18.1466667,15.8333333 18.3333333,16.02 18.3333333,16.25 C18.3333333,16.48 18.1466667,16.6666667 17.9166667,16.6666667 L14.1666667,16.6666667 L14.1666667,17.9166667 C14.1666667,18.1466667 13.98,18.3333333 13.75,18.3333333 C13.52,18.3333333 13.3333333,18.1466667 13.3333333,17.9166667 L13.3333333,16.6666667 L10,16.6666667 L10,17.9166667 C10,18.1466667 9.81333333,18.3333333 9.58333333,18.3333333 C9.35333333,18.3333333 9.16666667,18.1466667 9.16666667,17.9166667 L9.16666667,16.6666667 L5.83333333,16.6666667 L5.83333333,17.9166667 C5.83333333,18.1466667 5.64666667,18.3333333 5.41666667,18.3333333 C5.18666667,18.3333333 5,18.1466667 5,17.9166667 L5,16.6666667 L2.08333333,16.6666667 C1.85333333,16.6666667 1.66666667,16.48 1.66666667,16.25 C1.66666667,16.02 1.85333333,15.8333333 2.08333333,15.8333333 L5,15.8333333 L5,13.3333333 L2.08333333,13.3333333 Z" id="Shape"></path>
                        <path d="M19.5833333,1.66666667 L16.6666667,1.66666667 L16.6666667,0.416666667 C16.6666667,0.186666667 16.48,0 16.25,0 L13.75,0 C13.52,0 13.3333333,0.186666667 13.3333333,0.416666667 L13.3333333,1.66666667 L6.66666667,1.66666667 L6.66666667,0.416666667 C6.66666667,0.186666667 6.48,0 6.25,0 L3.75,0 C3.52,0 3.33333333,0.186666667 3.33333333,0.416666667 L3.33333333,1.66666667 L0.416666667,1.66666667 C0.186666667,1.66666667 0,1.85333333 0,2.08333333 L0,5.83333333 L20,5.83333333 L20,2.08333333 C20,1.85333333 19.8133333,1.66666667 19.5833333,1.66666667 Z M5.83333333,3.33333333 L4.16666667,3.33333333 L4.16666667,0.833333333 L5.83333333,0.833333333 L5.83333333,3.33333333 Z M15.8333333,3.33333333 L14.1666667,3.33333333 L14.1666667,0.833333333 L15.8333333,0.833333333 L15.8333333,3.33333333 Z" id="Shape"></path>
                    </g>
                </g>
            </g>
        </g>
    </g>
</svg>