<?xml version="1.0" encoding="UTF-8" standalone="no"?>
<svg width="20px" height="20px" viewBox="0 0 20 20" version="1.1" xmlns="http://www.w3.org/2000/svg" xmlns:xlink="http://www.w3.org/1999/xlink">
    <!-- Generator: Sketch 41.2 (35397) - http://www.bohemiancoding.com/sketch -->
    <title>Group 11 Copy 3</title>
    <desc>Created with Sketch.</desc>
    <defs></defs>
    <g id="Page-1" stroke="none" stroke-width="1" fill="none" fill-rule="evenodd">
        <g id="Dine-møter-V3" transform="translate(-708.000000, -688.000000)" fill="#06893A">
            <g id="Group-11-Copy-3" transform="translate(708.000000, 688.000000)">
                <g id="Fill-11-Copy-3">
                    <path d="M14.3073975,7.3150275 L8.1198975,13.0900275 C8.0406975,13.1634525 7.9392225,13.2005775 7.8385725,13.2005775 C7.7329725,13.2005775 7.6273725,13.1601525 7.5473475,13.0801275 L5.4848475,11.0176275 C5.3231475,10.8559275 5.3231475,10.5952275 5.4848475,10.4343525 C5.6457225,10.2726525 5.9064225,10.2726525 6.0681225,10.4343525 L7.8484725,12.2147025 L13.7447475,6.7119525 C13.9105725,6.5568525 14.1720975,6.5651025 14.3271975,6.7309275 C14.4831225,6.8984025 14.4740475,7.1591025 14.3073975,7.3150275 M9.9010725,0.000577500001 C4.4420475,0.000577500001 0.0010725,4.4423775 0.0010725,9.9005775 C0.0010725,15.3587775 4.4420475,19.8005775 9.9010725,19.8005775 C15.3592725,19.8005775 19.8010725,15.3587775 19.8010725,9.9005775 C19.8010725,4.4423775 15.3592725,0.000577500001 9.9010725,0.000577500001" id="Fill-11"></path>
                </g>
            </g>
        </g>
    </g>
</svg>